<svg id="Layer_1" data-name="Layer 1" xmlns="http://www.w3.org/2000/svg" xmlns:xlink="http://www.w3.org/1999/xlink" viewBox="0 0 1920 1080"><defs><style>.cls-1{fill:url(#linear-gradient);}.cls-2{fill:url(#linear-gradient-2);}.cls-3{fill:#fff;}.cls-4{fill:url(#linear-gradient-3);}.cls-5{fill:none;stroke:#fff;stroke-miterlimit:10;stroke-width:5px;}</style><linearGradient id="linear-gradient" x1="1152.46" y1="539.22" x2="1270.5" y2="539.22" gradientUnits="userSpaceOnUse"><stop offset="0" stop-color="#01006a"/><stop offset="1" stop-color="#f0f3fa"/></linearGradient><linearGradient id="linear-gradient-2" x1="960.25" y1="288.18" x2="1399.14" y2="-150.71" gradientUnits="userSpaceOnUse"><stop offset="0" stop-color="#01006f"/><stop offset="0.07" stop-color="#2e2e89"/><stop offset="0.23" stop-color="#9597c5"/><stop offset="0.34" stop-color="#d7d9eb"/><stop offset="0.39" stop-color="#f0f3fa"/></linearGradient><linearGradient id="linear-gradient-3" x1="775.84" y1="598.93" x2="1277.98" y2="598.93" gradientUnits="userSpaceOnUse"><stop offset="0" stop-color="#01006f"/><stop offset="0.16" stop-color="#2e2e89"/><stop offset="0.55" stop-color="#9597c5"/><stop offset="0.83" stop-color="#d7d9eb"/><stop offset="0.95" stop-color="#f0f3fa"/><stop offset="1" stop-color="#f0f3fa"/></linearGradient></defs><polygon class="cls-1" points="1270.5 228.5 1270.5 722.41 1270.18 722.41 1152.46 849.93 1152.46 347.86 1152.83 347.03 1270.18 228.5 1270.5 228.5"/><polygon class="cls-2" points="1270.18 228.5 1152.83 347.03 1152.46 347.86 777.09 347.86 650.32 347.86 649.5 347.04 776.27 228.5 776.5 228.5 1270.18 228.5"/><polygon class="cls-3" points="1152.46 849.93 1152.46 850 1152.4 850 1152.46 849.93"/><polygon class="cls-4" points="1152.46 347.86 1152.46 849.93 1152.4 850 650.32 850 650.32 347.86 777.09 347.86 1152.46 347.86"/><polyline class="cls-5" points="777.09 347.86 1152.46 347.86 1152.46 849.93 1152.46 850 1152.4 850 650.32 850 650.32 347.86 777.09 347.86"/><line class="cls-5" x1="649.5" y1="347.04" x2="776.27" y2="228.5"/><line class="cls-5" x1="1152.83" y1="347.03" x2="1270.18" y2="228.5"/><polyline class="cls-5" points="1151.64 850.82 1152.4 850 1152.46 849.93 1270.18 722.41"/><polyline class="cls-5" points="776.5 228.5 1270.18 228.5 1270.5 228.5"/><polyline class="cls-5" points="1270.5 722.5 1270.5 722.41 1270.5 228.5"/></svg>